<svg width="47" height="47" viewBox="0 0 47 47" fill="none" xmlns="http://www.w3.org/2000/svg">
<g id="Group 4">
<g id="&#240;&#159;&#166;&#134; icon &#34;calendar dates&#34;">
<path id="Vector" d="M13.0555 26.1112C11.6134 26.1112 10.4444 24.9422 10.4444 23.5001C10.4444 22.058 11.6134 20.889 13.0555 20.889C14.4976 20.889 15.6666 22.058 15.6666 23.5001C15.6666 24.9422 14.4976 26.1112 13.0555 26.1112Z" fill="black"/>
<path id="Vector_2" d="M13.0555 36.5556C11.6134 36.5556 10.4444 35.3866 10.4444 33.9445C10.4444 32.5024 11.6134 31.3334 13.0555 31.3334C14.4976 31.3334 15.6666 32.5024 15.6666 33.9445C15.6666 35.3866 14.4976 36.5556 13.0555 36.5556Z" fill="black"/>
<path id="Vector_3" d="M20.8889 33.9445C20.8889 35.3866 22.0579 36.5556 23.5 36.5556C24.9421 36.5556 26.1111 35.3866 26.1111 33.9445C26.1111 32.5024 24.9421 31.3334 23.5 31.3334C22.0579 31.3334 20.8889 32.5024 20.8889 33.9445Z" fill="black"/>
<path id="Vector_4" d="M33.9444 36.5556C32.5022 36.5556 31.3333 35.3866 31.3333 33.9445C31.3333 32.5024 32.5022 31.3334 33.9444 31.3334C35.3865 31.3334 36.5555 32.5024 36.5555 33.9445C36.5555 35.3866 35.3865 36.5556 33.9444 36.5556Z" fill="black"/>
<path id="Vector_5" d="M20.8889 23.5001C20.8889 24.9422 22.0579 26.1112 23.5 26.1112C24.9421 26.1112 26.1111 24.9422 26.1111 23.5001C26.1111 22.058 24.9421 20.889 23.5 20.889C22.0579 20.889 20.8889 22.058 20.8889 23.5001Z" fill="black"/>
<path id="Vector_6" d="M33.9444 26.1112C32.5022 26.1112 31.3333 24.9422 31.3333 23.5001C31.3333 22.058 32.5022 20.889 33.9444 20.889C35.3865 20.889 36.5555 22.058 36.5555 23.5001C36.5555 24.9422 35.3865 26.1112 33.9444 26.1112Z" fill="black"/>
<path id="Vector_7" d="M13.0555 10.4444C11.6134 10.4444 10.4444 11.6134 10.4444 13.0555C10.4444 14.4976 11.6134 15.6666 13.0555 15.6666H33.9444C35.3865 15.6666 36.5555 14.4976 36.5555 13.0555C36.5555 11.6134 35.3865 10.4444 33.9444 10.4444H13.0555Z" fill="black"/>
<path id="Vector_8" fill-rule="evenodd" clip-rule="evenodd" d="M7.83333 0C3.50711 0 0 3.50711 0 7.83333V39.1667C0 43.493 3.50711 47 7.83333 47H39.1667C43.493 47 47 43.493 47 39.1667V7.83333C47 3.50711 43.493 0 39.1667 0H7.83333ZM39.1667 5.22222H7.83333C6.39127 5.22222 5.22222 6.39127 5.22222 7.83333V39.1667C5.22222 40.6088 6.39127 41.7778 7.83333 41.7778H39.1667C40.6088 41.7778 41.7778 40.6088 41.7778 39.1667V7.83333C41.7778 6.39127 40.6088 5.22222 39.1667 5.22222Z" fill="black"/>
</g>
</g>
</svg>
