<svg width="32" height="32" viewBox="0 0 32 32" fill="none" xmlns="http://www.w3.org/2000/svg">
<path d="M8.88886 14.2223C7.90703 14.2223 7.11108 15.0182 7.11108 16.0001C7.11108 16.9819 7.90703 17.7778 8.88886 17.7778H23.0391C24.021 17.7778 24.8169 16.9819 24.8169 16.0001C24.8169 15.0182 24.021 14.2223 23.0391 14.2223H8.88886Z" fill="white"/>
<path d="M8.96101 21.4517C7.97916 21.4517 7.18323 22.2476 7.18323 23.2294C7.18323 24.2113 7.97916 25.0072 8.96101 25.0072H23.1112C24.093 25.0072 24.889 24.2113 24.889 23.2294C24.889 22.2476 24.093 21.4517 23.1112 21.4517H8.96101Z" fill="white"/>
<path fill-rule="evenodd" clip-rule="evenodd" d="M3.55556 0C1.59188 0 0 1.59188 0 3.55556V28.4444C0 30.4082 1.59188 32 3.55556 32H28.4444C30.4082 32 32 30.4082 32 28.4444V3.55556C32 1.59188 30.4082 0 28.4444 0H3.55556ZM7.11111 3.55556H3.55556V28.4444H28.4444V3.55556H24.8889V5.33333C24.8889 8.27884 22.5012 10.6667 19.5556 10.6667H12.4444C9.49893 10.6667 7.11111 8.27884 7.11111 5.33333V3.55556ZM10.6667 3.55556V5.33333C10.6667 6.31516 11.4626 7.11111 12.4444 7.11111H19.5556C20.5374 7.11111 21.3333 6.31516 21.3333 5.33333V3.55556H10.6667Z" fill="white"/>
</svg>
