<svg width="47" height="47" viewBox="0 0 47 47" fill="none" xmlns="http://www.w3.org/2000/svg">
<g id="&#240;&#159;&#166;&#134; icon &#34;time&#34;">
<path id="Vector" d="M16.4501 11.75H21.1501V23.5H32.9001V28.2H16.4501V11.75Z" fill="black"/>
<path id="Vector_2" fill-rule="evenodd" clip-rule="evenodd" d="M47 23.5C47 36.4786 36.4786 47 23.5 47C10.5213 47 0 36.4786 0 23.5C0 10.5213 10.5213 0 23.5 0C36.4786 0 47 10.5213 47 23.5ZM42.3 23.5C42.3 33.883 33.883 42.3 23.5 42.3C13.117 42.3 4.7 33.883 4.7 23.5C4.7 13.117 13.117 4.7 23.5 4.7C33.883 4.7 42.3 13.117 42.3 23.5Z" fill="black"/>
</g>
</svg>
