<svg width="32" height="32" viewBox="0 0 32 32" fill="none" xmlns="http://www.w3.org/2000/svg">
<path fill-rule="evenodd" clip-rule="evenodd" d="M5.33333 32C2.38782 32 0 30.0245 0 27.5877V12.88C0 12.8301 0.0030046 12.7808 0.00885349 12.7323H0C0 11.8852 0.406756 11.0727 1.13079 10.4737L12.2288 1.29233C14.3115 -0.430778 17.6884 -0.430778 19.7712 1.29233L30.8692 10.4738C31.5932 11.0728 32 11.8852 32 12.7323H31.9911C31.997 12.7808 32 12.8301 32 12.88V27.5877C32 30.0245 29.6123 32 26.6667 32H5.33333ZM17.2571 3.37231L28.4444 12.6277V27.5877C28.4444 28.3999 27.6485 29.0585 26.6667 29.0585H21.3333V21.7046C21.3333 19.2677 18.9456 17.2923 16 17.2923C13.0544 17.2923 10.6667 19.2677 10.6667 21.7046V29.0585H5.33333C4.3515 29.0585 3.55556 28.3999 3.55556 27.5877V12.6278L14.7429 3.37231C15.4372 2.79794 16.5628 2.79794 17.2571 3.37231Z" fill="#E4DFDF"/>
</svg>
