<svg width="57" height="57" viewBox="0 0 57 57" fill="none" xmlns="http://www.w3.org/2000/svg">
<g id="Group 32">
<g id="Group 12">
<g id="Group 11">
<g id="Group 10">
<g id="Group 9">
<path id="Vector" d="M11.4 10.441C11.4 9.28771 12.676 8.35278 14.25 8.35278H42.75C44.3241 8.35278 45.6 9.28771 45.6 10.441C45.6 11.5942 44.3241 12.5292 42.75 12.5292H14.25C12.676 12.5292 11.4 11.5942 11.4 10.441Z" fill="black"/>
<path id="Vector_2" d="M11.4 18.7937C11.4 17.6404 12.676 16.7055 14.25 16.7055H42.75C44.3241 16.7055 45.6 17.6404 45.6 18.7937C45.6 19.947 44.3241 20.8819 42.75 20.8819H14.25C12.676 20.8819 11.4 19.947 11.4 18.7937Z" fill="black"/>
<path id="Vector_3" d="M14.25 25.0583C12.676 25.0583 11.4 25.9932 11.4 27.1465C11.4 28.2999 12.676 29.2347 14.25 29.2347H42.75C44.3241 29.2347 45.6 28.2999 45.6 27.1465C45.6 25.9932 44.3241 25.0583 42.75 25.0583H14.25Z" fill="black"/>
<path id="Vector_4" d="M11.4 35.4993C11.4 34.346 12.676 33.4111 14.25 33.4111H25.65C27.2241 33.4111 28.5 34.346 28.5 35.4993C28.5 36.6526 27.2241 37.5875 25.65 37.5875H14.25C12.676 37.5875 11.4 36.6526 11.4 35.4993Z" fill="black"/>
<path id="Vector_5" fill-rule="evenodd" clip-rule="evenodd" d="M0 7.77273C0 3.47998 3.82798 0 8.55 0H48.45C53.1722 0 57 3.47998 57 7.77273V49.2273C57 53.5201 53.1722 57 48.45 57H8.55C3.82798 57 0 53.5201 0 49.2273V7.77273ZM8.55 5.18182H48.45C50.0241 5.18182 51.3 6.34179 51.3 7.77273V49.2273C51.3 50.6582 50.0241 51.8182 48.45 51.8182H8.55C6.976 51.8182 5.7 50.6582 5.7 49.2273V7.77273C5.7 6.34182 6.97597 5.18182 8.55 5.18182Z" fill="black"/>
</g>
</g>
</g>
</g>
</g>
</svg>
