<svg width="47" height="47" viewBox="0 0 47 47" fill="none" xmlns="http://www.w3.org/2000/svg">
<g id="&#240;&#159;&#166;&#134; icon &#34;profile&#34;">
<path id="Vector" fill-rule="evenodd" clip-rule="evenodd" d="M32.0454 17.091C32.0454 21.8104 28.2194 25.6364 23.4999 25.6364C18.7804 25.6364 14.9545 21.8104 14.9545 17.091C14.9545 12.3715 18.7804 8.54553 23.4999 8.54553C28.2194 8.54553 32.0454 12.3715 32.0454 17.091ZM27.7726 17.091C27.7726 19.4508 25.8597 21.3637 23.4999 21.3637C21.1401 21.3637 19.2272 19.4508 19.2272 17.091C19.2272 14.7312 21.1401 12.8183 23.4999 12.8183C25.8597 12.8183 27.7726 14.7312 27.7726 17.091Z" fill="black"/>
<path id="Vector_2" fill-rule="evenodd" clip-rule="evenodd" d="M23.5 0C10.5213 0 0 10.5213 0 23.5C0 36.4786 10.5213 47 23.5 47C36.4786 47 47 36.4786 47 23.5C47 10.5213 36.4786 0 23.5 0ZM4.27273 23.5C4.27273 27.9654 5.79499 32.0754 8.34887 35.3391C11.8621 30.7399 17.4034 27.7727 23.6378 27.7727C29.7912 27.7727 35.2697 30.6634 38.7889 35.1609C41.2596 31.9265 42.7273 27.8847 42.7273 23.5C42.7273 12.8811 34.119 4.27273 23.5 4.27273C12.8811 4.27273 4.27273 12.8811 4.27273 23.5ZM23.5 42.7273C18.9063 42.7273 14.6889 41.1162 11.3818 38.4285C14.0862 34.5689 18.5673 32.0455 23.6378 32.0455C28.6452 32.0455 33.078 34.5068 35.7922 38.2856C32.4597 41.059 28.1746 42.7273 23.5 42.7273Z" fill="black"/>
</g>
</svg>
