<svg width="32" height="32" viewBox="0 0 32 32" fill="none" xmlns="http://www.w3.org/2000/svg">
<path fill-rule="evenodd" clip-rule="evenodd" d="M24.2445 21.8545C28.3822 16.5405 28.0084 8.85242 23.1234 3.96733C17.8336 -1.32244 9.25713 -1.32244 3.96735 3.96733C-1.32245 9.25712 -1.32245 17.8335 3.96735 23.1233C8.85245 28.0084 16.5406 28.3821 21.8546 24.2445C21.8774 24.2704 21.9013 24.2958 21.926 24.3206L29.1096 31.504C29.7708 32.1653 30.8429 32.1653 31.5041 31.504C32.1653 30.8428 32.1653 29.7709 31.5041 29.1095L24.3207 21.9261C24.2958 21.9014 24.2704 21.8775 24.2445 21.8545ZM20.7288 6.36184C24.6962 10.3292 24.6962 16.7614 20.7288 20.7288C16.7615 24.6961 10.3292 24.6961 6.36184 20.7288C2.3945 16.7614 2.3945 10.3292 6.36184 6.36184C10.3292 2.3945 16.7615 2.3945 20.7288 6.36184Z" fill="white"/>
</svg>
